Coordinates
version=1
nRows=26
nColumns=24
inDegrees=yes

Units are S.I. units (second, meters, Newtons, ...)
Angles are in degrees.

endheader
time	pelvis_tilt	pelvis_list	pelvis_rotation	pelvis_tx	pelvis_ty	pelvis_tz	hip_flexion_r	hip_adduction_r	hip_rotation_r	knee_angle_r	ankle_angle_r	subtalar_angle_r	mtp_angle_r	hip_flexion_l	hip_adduction_l	hip_rotation_l	knee_angle_l	ankle_angle_l	subtalar_angle_l	mtp_angle_l	lumbar_extension	lumbar_bending	lumbar_rotation
      4.32500000	     -4.41858354	      3.05753715	      3.27377847	     -0.25950849	     -0.03493334	     -0.17211410	     35.31841838	     -1.32615131	      0.61885592	    -17.20975146	      1.74846937	      7.52628763	      9.40799719	     -7.93651352	      5.63949558	     -8.05498407	    -27.66619183	     11.60825409	     21.21496531	     -2.28177894	      2.97431840	     -5.82353973	     -9.49080207
      4.33000000	     -4.43229224	      2.77703369	      3.17540630	     -0.25159177	     -0.03529896	     -0.17120123	     35.14806131	     -0.86563782	      0.66760744	    -17.76441925	      0.91671633	      7.23829524	      9.96846370	     -7.94457444	      5.09088645	     -8.31340160	    -28.42468086	     10.04477147	     21.29796799	      0.34607372	      3.18476283	     -5.50036128	     -9.30893267
      4.33500000	     -4.52372778	      2.49476163	      3.05275126	     -0.24365867	     -0.03565875	     -0.17023305	     35.08105687	     -0.39398602	      0.71526530	    -18.33505375	      0.07684387	      7.08560536	     10.37389821	     -7.84701637	      4.53641672	     -8.58427289	    -29.15714048	      8.22107278	     21.33947436	      3.48766995	      3.48313933	     -5.18879820	     -9.11653595
      4.34000000	     -4.57242014	      2.13057390	      2.91546086	     -0.23573950	     -0.03587273	     -0.16926112	     34.93316463	      0.17515044	      0.83034250	    -18.82209788	     -0.90233087	      6.85146105	     10.54931060	     -7.74107928	      3.87026366	     -8.92928275	    -29.96327626	      6.33099406	     21.41235353	      6.44647296	      3.72422289	     -4.76225411	     -8.87296352
      4.34500000	     -4.64350937	      1.75885969	      2.82140923	     -0.22788024	     -0.03601503	     -0.16837599	     34.83644877	      0.69929129	      0.77489890	    -19.34136410	     -1.79025276	      6.89364327	     10.68659202	     -7.57738842	      3.19768849	     -9.16191135	    -30.73750725	      4.16021329	     21.36967576	     10.00837789	      3.97383891	     -4.33539648	     -8.67677795
      4.35000000	     -4.73864666	      1.35564344	      2.60730711	     -0.21992652	     -0.03614514	     -0.16725249	     34.73838028	      1.38525410	      1.15569968	    -19.81594964	     -2.85096828	      6.51611005	     10.44710912	     -7.36427342	      2.47935920	     -9.53214179	    -31.59650815	      2.06003124	     21.40096681	     12.54960210	      4.27525338	     -3.87090451	     -8.35121591
      4.35500000	     -4.88192528	      0.93795011	      2.43699422	     -0.21203495	     -0.03627666	     -0.16618367	     34.71602870	      2.04308187	      1.41216424	    -20.33728954	     -3.82024247	      6.31927614	     10.17684366	     -7.04499070	      1.72447248	     -9.87048459	    -32.47287773	     -0.26434780	     21.39452255	     15.55687205	      4.60686644	     -3.39907888	     -8.07873429
      4.36000000	     -4.97972163	      0.51406447	      2.27286975	     -0.20413442	     -0.03632187	     -0.16517451	     34.64472118	      2.69732481	      1.65619580	    -20.88927684	     -4.67828626	      6.19131206	      9.84080629	     -6.74112015	      0.96444807	    -10.15241048	    -33.37148978	     -2.73681776	     21.30643349	     18.29364857	      4.89051830	     -2.91096095	     -7.82171925
      4.36500000	     -5.09761470	      0.09988505	      2.10189440	     -0.19623965	     -0.03638189	     -0.16417217	     34.59565359	      3.34425698	      1.92087965	    -21.46209608	     -5.43612120	      6.06271408	      9.49831075	     -6.38017874	      0.21563919	    -10.41052434	    -34.30323659	     -5.27792528	     21.15929286	     20.64129053	      5.18785550	     -2.42923132	     -7.55238579
      4.37000000	     -5.26296333	     -0.32168404	      1.94055198	     -0.18835054	     -0.03649583	     -0.16318166	     34.59254237	      3.99468550	      2.19037921	    -22.04408497	     -6.13619518	      5.82551171	      9.17371254	     -5.90812706	     -0.54318641	    -10.62691702	    -35.32592936	     -7.83327708	     20.96887080	     22.36012459	      5.53605495	     -1.94239184	     -7.29568743
      4.37500000	     -5.42868620	     -0.68118272	      1.78927764	     -0.18064087	     -0.03660659	     -0.16222491	     34.59859298	      4.58384047	      2.51259114	    -22.64080546	     -6.79134898	      5.44266332	      8.89413625	     -5.35571873	     -1.21511548	    -10.77124575	    -36.44804120	    -10.42433463	     20.56731940	     23.17910715	      5.84505697	     -1.53107264	     -7.09666502
      4.38000000	     -5.56141592	     -1.04373758	      1.61813065	     -0.17287821	     -0.03667507	     -0.16131378	     34.53623866	      5.17089377	      2.79078795	    -23.20036802	     -7.25939560	      5.11550937	      8.78355176	     -4.82861529	     -1.86719204	    -10.88671262	    -37.52564755	    -13.19219931	     19.94235671	     23.87916282	      6.12867520	     -1.09333596	     -6.84018080
      4.38500000	     -5.63333546	     -1.42656422	      1.48066105	     -0.16517890	     -0.03664747	     -0.16054588	     34.37343956	      5.73880546	      2.96569325	    -23.71180240	     -7.56112079	      4.83473660	      8.72573155	     -4.30342641	     -2.50630933	    -10.89400153	    -38.69067967	    -15.87058044	     19.14153481	     23.49375225	      6.33326468	     -0.62046133	     -6.60705359
      4.39000000	     -5.72092153	     -1.84719084	      1.31860623	     -0.15749709	     -0.03669410	     -0.15966627	     34.21029851	      6.36209324	      3.09551717	    -24.19944552	     -7.72322613	      4.53626347	      8.74566047	     -3.70881008	     -3.22195173	    -11.04691305	    -39.91572957	    -18.57723031	     18.18540888	     22.89983163	      6.55530051	     -0.12689487	     -6.37161516
      4.39500000	     -5.86143909	     -2.12309033	      1.10088692	     -0.15009126	     -0.03673531	     -0.15873033	     34.11415060	      6.89084168	      3.39051512	    -24.68057471	     -7.92079870	      4.06974611	      8.94357938	     -3.00742488	     -3.72217999	    -11.11420286	    -41.11239184	    -21.47141463	     16.88948212	     21.94666899	      6.77360190	      0.22303407	     -6.08853184
      4.40000000	     -6.07371491	     -2.44084360	      0.84224646	     -0.14272598	     -0.03691039	     -0.15782113	     34.06985243	      7.45415461	      3.64048704	    -25.07591556	     -8.11551773	      3.70096846	      9.85501031	     -2.15102635	     -4.27894924	    -11.31422769	    -42.48766985	    -24.04418201	     15.46029700	     19.76899699	      7.07271723	      0.62872232	     -5.77535064
      4.40500000	     -6.16356692	     -2.81296711	      0.63013929	     -0.13545497	     -0.03689688	     -0.15692040	     33.84933871	      8.05657251	      3.73715906	    -25.40211660	     -8.23453480	      3.19600406	     10.51188025	     -1.36181936	     -4.89809329	    -11.47757424	    -43.93332917	    -26.40343331	     13.92082153	     16.65626434	      7.21878499	      1.08161218	     -5.47791618
      4.41000000	     -6.27100845	     -3.20151359	      0.44262682	     -0.12829803	     -0.03686101	     -0.15604733	     33.60463950	      8.67967072	      3.92717900	    -25.67462181	     -8.24233508	      2.69217299	     10.99750923	     -0.48453741	     -5.52222206	    -11.59477084	    -45.43753658	    -28.56485760	     12.21541888	     13.01934881	      7.36429867	      1.54202430	     -5.25036771
      4.41500000	     -6.39996602	     -3.53415189	      0.12133794	     -0.12123246	     -0.03686720	     -0.15498961	     33.38771052	      9.33444587	      4.23773490	    -25.97131121	     -8.14175195	      2.23729076	     11.37589511	      0.42035888	     -6.10148976	    -11.90243662	    -46.93433524	    -30.55558993	     10.37270329	      9.02011684	      7.51399820	      1.96005868	     -4.85679313
      4.42000000	     -6.50052049	     -3.91122950	     -0.12910850	     -0.11426622	     -0.03677696	     -0.15401597	     33.08365541	     10.01142724	      4.55377067	    -26.17736776	     -8.05818138	      1.63477535	     11.57326940	      1.37249475	     -6.71613219	    -12.10162269	    -48.51141292	    -32.08145609	      8.52578187	      4.28679010	      7.61952284	      2.41207427	     -4.54318634
      4.42500000	     -6.59028705	     -4.30972517	     -0.30332545	     -0.10742336	     -0.03661551	     -0.15310530	     32.73807587	     10.67428063	      4.80146642	    -26.33077035	     -7.93815572	      0.99421043	     11.58414914	      2.39393839	     -7.34140429	    -12.17557477	    -50.14819331	    -33.12394783	      6.76463457	     -0.92579929	      7.69310860	      2.85616070	     -4.36467648
      4.43000000	     -6.70774567	     -4.64432540	     -0.61264776	     -0.10064548	     -0.03646737	     -0.15204552	     32.41489193	     11.35921830	      5.21914478	    -26.49995195	     -7.77701937	      0.38903411	     11.43598769	      3.42709717	     -7.90266074	    -12.39640310	    -51.73904749	    -33.78621161	      5.03179277	     -6.15800720	      7.78373467	      3.26208811	     -3.98353654
      4.43500000	     -6.81174164	     -4.97911044	     -0.85718016	     -0.09396215	     -0.03625748	     -0.15108547	     32.04182403	     12.01541700	      5.64496647	    -26.61794458	     -7.56826968	     -0.25232480	     11.15675182	      4.50279253	     -8.43336277	    -12.48768954	    -53.34502750	    -33.92033893	      3.42236718	    -11.40861040	      7.84802499	      3.65901084	     -3.67128241
      4.44000000	     -6.92132676	     -5.27690734	     -1.09115799	     -0.08735169	     -0.03601516	     -0.15013998	     31.65223939	     12.62880878	      6.08313832	    -26.70664767	     -7.30807136	     -0.88555072	     10.80891202	      5.60609783	     -8.89792750	    -12.52818181	    -54.91749869	    -33.58267984	      1.93201964	    -16.27884658	      7.91123649	      4.00083913	     -3.38904331
      4.44500000	     -7.01492004	     -5.57151636	     -1.27598761	     -0.08081967	     -0.03565113	     -0.14931830	     31.22083029	     13.18859543	      6.44157536	    -26.74097638	     -7.05223119	     -1.40363488	     10.45573584	      6.73577487	     -9.32220096	    -12.45725293	    -56.45432633	    -32.88498383	      0.64725113	    -20.68202799	      7.94897182	      4.34101692	     -3.14069552
      4.45000000	     -7.07894094	     -5.83430430	     -1.43088917	     -0.07440413	     -0.03521531	     -0.14858886	     30.74858932	     13.68063063	      6.75672430	    -26.74735892	     -6.75732904	     -1.82268835	     10.17536476	      7.86035106	     -9.67600577	    -12.32864588	    -57.93681870	    -31.87773399	     -0.48289786	    -24.25765490	      7.93670326	      4.64457175	     -2.93076138
